#!OML:ASF F:\VICON\USERDATA\INSTALL\rory3\rory3.ASF
:FULLY-SPECIFIED
:DEGREES
847
root 0.101665 16.9416 17.4519 -159.561 -30.7654 -176.246
lowerback -13.7475 1.59669 3.03312
upperback -7.52682 0.876795 2.38829
thorax -0.19385 0.0277703 0.899236
lowerneck -12.602 0.0824625 -3.07288
upperneck 39.1211 -3.39846 1.69265
head 16.1358 -2.85437 0.363774
rclavicle -1.72197e-014 9.54166e-015
rhumerus -76.3938 42.9671 -123.197
rradius 51.5275
rwrist -43.6289
rhand 19.9623 -3.15212
rfingers 7.12502
rthumb 44.5 -26.846
lclavicle -1.72197e-014 9.54166e-015
lhumerus -59.9844 -17.9366 100.703
lradius 40.5537
lwrist 12.04
lhand 25.3114 20.5272
lfingers 7.12502
lthumb 49.4469 42.0356
rfemur -31.8657 2.46398 35.8601
rtibia 27.3975
rfoot -38.9417 -30.5403
rtoes 40.115
lfemur -28.5228 32.102 -25.5241
ltibia 56.7015
lfoot 35.8153 36.8539
ltoes 31.2009
848
root 0.105958 16.9418 17.4501 -159.47 -30.865 -176.351
lowerback -13.8355 1.58112 2.93755
upperback -7.48579 0.868542 2.35526
thorax -0.104756 0.0295978 0.918342
lowerneck -12.6605 0.044286 -3.00853
upperneck 39.1378 -3.48776 1.72788
head 16.1622 -2.87432 0.351761
rclavicle -1.29334e-014 2.98177e-014
rhumerus -76.2972 43.0324 -123.111
rradius 51.5657
rwrist -44.0051
rhand 20.0943 -3.13711
rfingers 7.12502
rthumb 44.6229 -26.7837
lclavicle -1.29334e-014 2.98177e-014
lhumerus -60.0209 -17.9458 100.621
lradius 40.7282
lwrist 12.0068
lhand 25.3633 19.989
lfingers 7.12502
lthumb 49.4945 41.4732
rfemur -31.9567 2.46039 35.7718
rtibia 27.4079
rfoot -38.9469 -30.6144
rtoes 40.1166
lfemur -28.621 32.0497 -25.639
ltibia 56.7384
lfoot 35.997 36.6445
ltoes 30.5437
849
root 0.113899 16.9443 17.4446 -159.49 -31.0149 -176.278
lowerback -13.8634 1.56669 2.95081
upperback -7.46061 0.847756 2.38516
thorax -0.0638215 0.0210017 0.93961
lowerneck -12.8188 0.0105495 -2.85633
upperneck 39.2147 -3.52955 1.59461
head 16.2372 -2.88379 0.256038
rclavicle 3.1234e-014 -1.27222e-014
rhumerus -76.3889 43.2512 -123.301
rradius 51.564
rwrist -44.408
rhand 19.9687 -3.10212
rfingers 7.12502
rthumb 44.5059 -26.7937
lclavicle 3.1234e-014 -1.27222e-014
lhumerus -59.8935 -17.9093 100.539
lradius 40.7659
lwrist 11.9623
lhand 25.843 20.3771
lfingers 7.12502
lthumb 49.934 41.6344
rfemur -31.9792 2.45281 35.8935
rtibia 27.3849
rfoot -38.9808 -30.7427
rtoes 40.0754
lfemur -28.691 31.9938 -25.5068
ltibia 56.7648
lfoot 35.9259 36.7286
ltoes 30.7619
850
root 0.12164 16.945 17.443 -159.483 -31.1526 -176.287
lowerback -13.9545 1.5616 2.90605
upperback -7.36766 0.849839 2.39793
thorax 0.0816338 0.030245 0.979423
lowerneck -12.9757 -0.0625924 -2.71436
upperneck 39.1806 -3.56989 1.40037
head 16.2517 -2.89282 0.139521
rclavicle 2.42766e-014 3.61788e-014
rhumerus -76.2914 43.4348 -123.32
rradius 51.4959
rwrist -44.5993
rhand 19.902 -3.0376
rfingers 7.12502
rthumb 44.4438 -26.7529
lclavicle 2.42766e-014 3.61788e-014
lhumerus -59.6996 -18.0202 100.607
lradius 40.878
lwrist 11.9888
lhand 26.2075 20.8936
lfingers 7.12502
lthumb 50.2674 41.9748
rfemur -31.9878 2.36673 35.9713
rtibia 27.3995
rfoot -38.9119 -30.9253
rtoes 39.7206
lfemur -28.7225 31.9033 -25.44
ltibia 56.7874
lfoot 34.9443 37.7464
ltoes 32.3903
851
root 0.121808 16.9468 17.4461 -159.37 -31.3504 -176.353
lowerback -14.133 1.52256 2.90128
upperback -7.30634 0.791822 2.40785
thorax 0.240751 0.00498749 0.98654
lowerneck -13.2003 -0.0803417 -2.7322
upperneck 39.2638 -3.56333 1.36134
head 16.3507 -2.89156 0.122641
rclavicle -6.55492e-014 -5.80451e-014
rhumerus -76.1923 43.5304 -123.233
rradius 51.4754
rwrist -44.6406
rhand 19.8584 -2.96117
rfingers 7.12502
rthumb 44.4032 -26.692
lclavicle -6.55492e-014 -5.80451e-014
lhumerus -59.6196 -18.0907 100.707
lradius 40.8531
lwrist 12.2053
lhand 25.7766 19.7734
lfingers 7.12502
lthumb 49.8732 41.0625
rfemur -32.1066 2.17077 35.9859
rtibia 27.4108
rfoot -38.8575 -30.9425
rtoes 39.8153
lfemur -28.8575 31.7466 -25.5358
ltibia 56.8002
lfoot 34.4395 38.233
ltoes 33.0601
852
root 0.118834 16.9531 17.4537 -159.045 -31.4073 -176.53
lowerback -14.3531 1.59017 2.90536
upperback -7.39772 0.86053 2.28252
thorax 0.263753 0.0301309 0.865897
lowerneck -13.1252 -0.0961105 -2.70017
upperneck 39.3696 -3.65386 1.40092
head 16.3917 -2.92879 0.11585
rclavicle 2.21521e-014 2.3059e-014
rhumerus -76.3177 43.4162 -123.411
rradius 51.4999
rwrist -44.8076
rhand 19.6792 -2.86257
rfingers 7.12502
rthumb 44.2361 -26.6568
lclavicle 2.21521e-014 2.3059e-014
lhumerus -59.7664 -18.228 100.768
lradius 41.379
lwrist 11.9835
lhand 26.2479 21.2358
lfingers 7.12502
lthumb 50.3044 42.2973
rfemur -32.423 2.14318 35.7875
rtibia 27.4375
rfoot -38.9017 -30.7399
rtoes 40.0434
lfemur -29.2516 31.6559 -25.9518
ltibia 56.7912
lfoot 35.3789 37.4396
ltoes 30.5857
853
root 0.121273 16.9584 17.4606 -158.79 -31.4172 -176.761
lowerback -14.4334 1.63742 2.75134
upperback -7.46089 0.935286 2.20097
thorax 0.23906 0.0666051 0.879036
lowerneck -12.9495 -0.137443 -2.71159
upperneck 39.3273 -3.73998 1.43778
head 16.3296 -2.96466 0.122553
rclavicle -3.23398e-014 -2.06736e-014
rhumerus -76.6606 43.5243 -123.76
rradius 51.6554
rwrist -45.221
rhand 19.5586 -2.97219
rfingers 7.12502
rthumb 44.1237 -26.8088
lclavicle -3.23398e-014 -2.06736e-014
lhumerus -59.8883 -18.4617 100.977
lradius 41.5659
lwrist 12.0797
lhand 26.2956 22.2136
lfingers 7.12502
lthumb 50.3479 43.2517
rfemur -32.6385 2.14469 35.5554
rtibia 27.4519
rfoot -38.9654 -30.6432
rtoes 40.2141
lfemur -29.5017 31.5995 -26.3161
ltibia 56.7778
lfoot 35.187 37.7135
ltoes 32.0288
854
root 0.129265 16.9639 17.4519 -158.94 -31.5391 -176.854
lowerback -14.2817 1.59678 2.58119
upperback -7.4346 0.919914 2.21782
thorax 0.183005 0.0685797 0.987987
lowerneck -12.7673 -0.161641 -2.78644
upperneck 39.3171 -3.79562 1.48323
head 16.2837 -2.99995 0.148409
rclavicle 7.5886e-014 -3.81667e-014
rhumerus -77.0475 43.7141 -124.162
rradius 51.787
rwrist -45.7015
rhand 19.3843 -3.02831
rfingers 7.12502
rthumb 43.961 -26.9257
lclavicle 7.5886e-014 -3.81667e-014
lhumerus -60.1433 -18.5948 101.127
lradius 41.7965
lwrist 12.2033
lhand 26.1891 22.6881
lfingers 7.12502
lthumb 50.2505 43.7783
rfemur -32.4046 2.47881 35.3998
rtibia 27.4356
rfoot -39.3485 -31.0687
rtoes 40.2426
lfemur -29.226 31.7059 -26.1742
ltibia 56.768
lfoot 35.2684 37.684
ltoes 31.2842
855
root 0.13613 16.9669 17.4423 -159.143 -31.6758 -176.835
lowerback -14.0756 1.63509 2.59614
upperback -7.49022 0.98286 2.16454
thorax 0.0162569 0.0982386 0.929872
lowerneck -12.5374 -0.177751 -2.71492
upperneck 39.4111 -3.90702 1.49745
head 16.2791 -3.05053 0.121848
rclavicle -1.26353e-014 3.97569e-016
rhumerus -77.1886 43.4582 -124.321
rradius 51.7833
rwrist -45.7899
rhand 19.4372 -3.10522
rfingers 7.12502
rthumb 44.0105 -26.9842
lclavicle -1.26353e-014 3.97569e-016
lhumerus -60.6101 -18.8921 101.259
lradius 42.0615
lwrist 12.4232
lhand 26.2351 22.9048
lfingers 7.12502
lthumb 50.2926 43.9725
rfemur -32.17 2.81168 35.3425
rtibia 27.4213
rfoot -39.7119 -31.4463
rtoes 40.2433
lfemur -28.9414 31.7583 -25.918
ltibia 56.7687
lfoot 34.9047 38.0226
ltoes 32.8876
856
root 0.140176 16.9646 17.4403 -159.188 -31.7786 -176.713
lowerback -14.0573 1.70196 2.75335
upperback -7.55039 1.04717 2.14569
thorax -0.0534646 0.121167 0.830506
lowerneck -12.3095 -0.176933 -2.49248
upperneck 39.3583 -3.92254 1.34465
head 16.1858 -3.04982 0.0174799
rclavicle -1.45734e-014 9.14409e-015
rhumerus -77.0582 43.1851 -124.17
rradius 51.6614
rwrist -45.518
rhand 19.7393 -2.99045
rfingers 7.12502
rthumb 44.2921 -26.7635
lclavicle -1.45734e-014 9.14409e-015
lhumerus -60.7562 -18.9986 101.257
lradius 41.9548
lwrist 12.4878
lhand 26.1451 22.2018
lfingers 7.12502
lthumb 50.2103 43.3134
rfemur -32.152 2.68491 35.5324
rtibia 27.4061
rfoot -39.7851 -31.2119
rtoes 40.4886
lfemur -29.0166 31.7729 -25.7968
ltibia 56.8073
lfoot 34.4437 38.4953
ltoes 32.4551
857
root 0.144345 16.9625 17.4401 -159.122 -31.8061 -176.847
lowerback -14.0436 1.66618 2.64976
upperback -7.56078 1.01368 2.14521
thorax -0.0737118 0.107361 0.88334
lowerneck -12.2348 -0.136698 -2.41391
upperneck 39.3879 -3.86643 1.25702
head 16.1769 -3.03209 -0.0253545
rclavicle 5.0628e-014 -3.10104e-014
rhumerus -76.7765 43.0521 -123.838
rradius 51.4681
rwrist -45.2072
rhand 19.608 -2.73029
rfingers 7.12502
rthumb 44.1697 -26.5496
lclavicle 5.0628e-014 -3.10104e-014
lhumerus -60.6355 -18.8039 101.116
lradius 41.4605
lwrist 12.5242
lhand 25.7966 20.5446
lfingers 7.12502
lthumb 49.8915 41.8241
rfemur -32.1455 2.40119 35.5194
rtibia 27.4029
rfoot -39.8339 -30.892
rtoes 40.6329
lfemur -29.0555 31.8568 -25.9407
ltibia 56.8384
lfoot 34.277 38.5786
ltoes 34.0116
858
root 0.144494 16.9632 17.4446 -158.985 -31.8585 -176.869
lowerback -14.1058 1.63057 2.6825
upperback -7.58585 0.951636 2.20417
thorax -0.0678192 0.0728913 0.918828
lowerneck -12.4114 -0.0966346 -2.55632
upperneck 39.5084 -3.76985 1.25526
head 16.2843 -3.0139 0.00958805
rclavicle 1.99654e-014 -9.54166e-015
rhumerus -76.7026 43.1404 -123.677
rradius 51.3941
rwrist -45.08
rhand 19.2875 -2.52223
rfingers 7.12502
rthumb 43.8708 -26.4531
lclavicle 1.99654e-014 -9.54166e-015
lhumerus -60.4672 -18.4795 100.944
lradius 41.217
lwrist 12.3984
lhand 25.6375 19.5731
lfingers 7.12502
lthumb 49.7458 40.9283
rfemur -32.3391 2.12929 35.5663
rtibia 27.3956
rfoot -39.4739 -30.8926
rtoes 40.3409
lfemur -29.2687 31.8453 -26.0881
ltibia 56.8597
lfoot 33.6114 39.07
ltoes 33.807
859
root 0.135445 16.9672 17.4645 -158.53 -31.8543 -176.783
lowerback -14.3697 1.76772 3.04381
upperback -7.75254 1.04663 2.15299
thorax -0.0957345 0.0917735 0.679571
lowerneck -12.5788 -0.090601 -2.68745
upperneck 39.61 -3.74582 1.31515
head 16.3838 -3.01365 0.0584576
rclavicle 1.97418e-014 1.27222e-014
rhumerus -76.8532 43.2516 -123.871
rradius 51.4222
rwrist -45.2859
rhand 19.4577 -2.6437
rfingers 7.12502
rthumb 44.0296 -26.5155
lclavicle 1.97418e-014 1.27222e-014
lhumerus -60.5079 -18.4829 100.953
lradius 41.5698
lwrist 12.258
lhand 25.8186 20.1768
lfingers 7.12502
lthumb 49.9116 41.4458
rfemur -33.0134 1.73689 35.6993
rtibia 27.4241
rfoot -38.7979 -30.641
rtoes 40.1337
lfemur -30.0767 31.6541 -26.5366
ltibia 56.9111
lfoot 33.2319 39.5124
ltoes 34.838
860
root 0.150874 16.9619 17.4416 -159.116 -31.9977 -176.907
lowerback -13.8686 1.6512 2.70159
upperback -7.59097 0.998922 2.15464
thorax -0.197853 0.0985913 0.859544
lowerneck -12.5306 -0.0825418 -2.76229
upperneck 39.6792 -3.81786 1.51545
head 16.4185 -3.03422 0.145605
rclavicle 2.06239e-014 1.35174e-014
rhumerus -76.9625 43.2291 -124.15
rradius 51.3911
rwrist -45.4877
rhand 19.6418 -2.76495
rfingers 7.12502
rthumb 44.2012 -26.5724
lclavicle 2.06239e-014 1.35174e-014
lhumerus -60.8824 -18.7428 101.082
lradius 42.4686
lwrist 12.3515
lhand 26.1897 22.0717
lfingers 7.12502
lthumb 50.2512 43.1615
rfemur -32.2103 2.31793 35.4818
rtibia 27.4619
rfoot -39.9665 -30.8222
rtoes 40.8064
lfemur -29.1188 31.8684 -26.0254
ltibia 56.8559
lfoot 34.0203 38.8277
ltoes 33.0258
861
root 0.160441 16.9599 17.4326 -159.139 -31.9424 -177.153
lowerback -13.7278 1.62921 2.36462
upperback -7.61333 1.02557 2.06692
thorax -0.300767 0.123064 0.958773
lowerneck -12.4156 -0.0607448 -2.8108
upperneck 39.7917 -3.90423 1.71669
head 16.4603 -3.0645 0.22495
rclavicle 5.69642e-015 -1.59028e-014
rhumerus -76.9294 43.0469 -124.201
rradius 51.3733
rwrist -45.457
rhand 19.7442 -2.92626
rfingers 7.12502
rthumb 44.2968 -26.6976
lclavicle 5.69642e-015 -1.59028e-014
lhumerus -61.217 -18.9275 101.126
lradius 42.7821
lwrist 12.5358
lhand 26.0867 22.493
lfingers 7.12502
lthumb 50.157 43.6329
rfemur -32.0247 2.73736 35.1716
rtibia 27.4916
rfoot -40.5228 -30.9134
rtoes 41.2448
lfemur -28.9046 31.954 -26.1522
ltibia 56.8095
lfoot 33.8764 38.9837
ltoes 33.9167
